<svg width="24" height="24" viewBox="0 0 24 24" fill="none" xmlns="http://www.w3.org/2000/svg">
<path d="M21.6977 6.49962H15.7802" stroke="#100F0F" stroke-width="1.5" stroke-miterlimit="10" stroke-linecap="round" stroke-linejoin="round"/>
<path d="M5.91752 6.49962H1.97252" stroke="#100F0F" stroke-width="1.5" stroke-miterlimit="10" stroke-linecap="round" stroke-linejoin="round"/>
<path d="M9.86263 9.99986C10.3159 9.99986 10.7648 9.90933 11.1836 9.73344C11.6024 9.55755 11.9829 9.29974 12.3035 8.97473C12.624 8.64973 12.8783 8.26389 13.0518 7.83925C13.2252 7.41461 13.3145 6.95949 13.3145 6.49986C13.3145 6.04023 13.2252 5.58511 13.0518 5.16047C12.8783 4.73583 12.624 4.34999 12.3035 4.02499C11.9829 3.69998 11.6024 3.44217 11.1836 3.26628C10.7648 3.09039 10.3159 2.99986 9.86263 2.99986C8.94714 2.99986 8.06914 3.36861 7.42179 4.02499C6.77444 4.68136 6.41076 5.5716 6.41076 6.49986C6.41076 7.42812 6.77444 8.31836 7.42179 8.97473C8.06914 9.63111 8.94714 9.99986 9.86263 9.99986V9.99986Z" stroke="#100F0F" stroke-width="1.5" stroke-miterlimit="10" stroke-linecap="round" stroke-linejoin="round"/>
<path d="M21.6977 17.4998H17.7527" stroke="#100F0F" stroke-width="1.5" stroke-miterlimit="10" stroke-linecap="round" stroke-linejoin="round"/>
<path d="M7.89002 17.4999H1.97252" stroke="#100F0F" stroke-width="1.5" stroke-miterlimit="10" stroke-linecap="round" stroke-linejoin="round"/>
<path d="M13.8077 21C14.7232 21 15.6012 20.6313 16.2485 19.9749C16.8959 19.3185 17.2596 18.4283 17.2596 17.5C17.2596 16.5718 16.8959 15.6815 16.2485 15.0251C15.6012 14.3688 14.7232 14 13.8077 14C12.8922 14 12.0142 14.3688 11.3668 15.0251C10.7195 15.6815 10.3558 16.5718 10.3558 17.5C10.3558 18.4283 10.7195 19.3185 11.3668 19.9749C12.0142 20.6313 12.8922 21 13.8077 21V21Z" stroke="#100F0F" stroke-width="1.5" stroke-miterlimit="10" stroke-linecap="round" stroke-linejoin="round"/>
</svg>
